<svg width="93" height="45" viewBox="0 0 93 45" fill="none" xmlns="http://www.w3.org/2000/svg">
<path d="M4.88007 0V12.8349L12.7725 0H18.5026L13.0688 8.83683L19.3263 21.5446H13.8871L10.0476 13.7479L5.2522 21.5464H0V0H4.88007Z" fill="black"/>
<path d="M24.4163 0V12.2893C24.4163 14.0941 24.9895 15.1395 25.7797 15.8741C26.5698 16.6088 27.6862 17.0132 28.8361 17.0132C29.986 17.0132 31.1006 16.607 31.8925 15.8741C32.6827 15.1395 33.2558 14.0941 33.2558 12.2893V0H38.1359V12.2893C38.1359 15.2631 36.9931 17.8008 35.2118 19.4555C33.4304 21.1102 31.1183 21.8996 28.8379 21.8996C26.5574 21.8996 24.2453 21.1102 22.464 19.4555C20.6827 17.8008 19.5398 15.2631 19.5398 12.2893V0H24.4163Z" fill="black"/>
<path d="M44.3139 0L48.2857 7.38168L52.2557 0H57.7972L50.7231 13.1475V21.5429H45.8448V13.1493L38.7725 0H44.3139Z" fill="black"/>
<path d="M0 44.9912V23.4448H5.2522L10.0476 31.2433L13.8871 23.4484H19.328L13.0688 36.1544L18.5026 44.9912H12.7725L4.88007 32.1563V44.9912H0Z" fill="black"/>
<path d="M19.5361 44.9911V32.7019C19.5361 29.728 20.679 27.1903 22.4603 25.5356C24.2416 23.8809 26.5538 23.0916 28.8342 23.0916C31.1146 23.0916 33.4268 23.8809 35.2081 25.5356C36.9894 27.1903 38.1322 29.728 38.1322 32.7019V44.9911H33.2522V32.7019C33.2522 30.8971 32.679 29.8516 31.8889 29.117C31.0987 28.3823 29.9823 27.9762 28.8324 27.9762C27.6825 27.9762 26.5679 28.3823 25.776 29.117C24.9841 29.8516 24.4127 30.8971 24.4127 32.7019V44.9911H19.5361Z" fill="black"/>
<path d="M38.7725 44.9912L45.8465 31.8419V23.4465H50.7248V31.8419L57.7989 44.9912H52.2575L48.2857 37.6095L44.3139 44.9912H38.7725Z" fill="black"/>
<path d="M60.8218 0.0246582L84.6101 23.3652L60.8218 44.9999V0.0246582Z" fill="black"/>
<path d="M93 0.0246582H86.0793V44.9982H93V0.0246582Z" fill="black"/>
</svg>
