<svg width="1845" height="191" viewBox="0 0 1845 191" fill="none" xmlns="http://www.w3.org/2000/svg">
<mask id="mask0" mask-type="alpha" maskUnits="userSpaceOnUse" x="4" y="0" width="1837" height="183">
<rect x="4" width="1837" height="183" fill="black"/>
</mask>
<g mask="url(#mask0)">
<path d="M1926.95 141.146C1965.2 132.525 1989.53 121.35 2005 110.574L1943.99 201H-130V74.5966C-129.815 74.5464 -129.596 74.487 -129.341 74.4187C-128.414 74.1696 -127.022 73.8018 -125.17 73.3282C-121.465 72.3811 -115.918 71.011 -108.557 69.3207C-93.8358 65.9403 -71.8582 61.2797 -42.8488 56.1633C15.17 45.9306 101.316 33.8747 213.793 26.5908C438.747 12.023 769.03 16.5428 1190.28 92.9123C1611.64 169.302 1821.94 164.811 1926.95 141.146ZM2013.95 100.886L2029.25 78.2197C2029.05 78.9203 2028.81 79.6952 2028.51 80.5368C2026.97 84.7794 2023.83 90.7388 2017.44 97.4557C2016.37 98.5791 2015.21 99.7239 2013.95 100.886Z" stroke="white" stroke-width="2"/>
<path d="M2030 67.3574V201H-158V123.418C-157.778 123.431 -157.521 123.446 -157.23 123.462C-156.018 123.531 -154.21 123.631 -151.827 123.758C-147.061 124.012 -139.995 124.372 -130.79 124.797C-112.381 125.647 -85.418 126.757 -51.1992 127.797C17.2383 129.876 114.7 131.673 230.802 130.547C463.001 128.294 769.782 114.347 1068.07 67.564C1366.2 20.8038 1606.9 20.8053 1773.05 32.4938C1856.12 38.3381 1920.56 47.1041 1964.23 54.4075C1986.06 58.0591 2002.7 61.3451 2013.87 63.7174C2019.46 64.9036 2023.68 65.8613 2026.51 66.5221C2027.92 66.8524 2028.98 67.1086 2029.69 67.2819C2029.8 67.3092 2029.91 67.3343 2030 67.3574Z" stroke="white" stroke-width="2"/>
</g>
</svg>
